<?xml version="1.0" encoding="UTF-8"?>
<svg xmlns="http://www.w3.org/2000/svg" version="1.1" viewBox="0 0 712.3 202.5">
  <defs>
    <style>
      .cls-1 {
        fill: #00216b;
      }

      .cls-2 {
        fill: #2741a0;
      }
    </style>
  </defs>
  <!-- Generator: Adobe Illustrator 28.7.7, SVG Export Plug-In . SVG Version: 1.2.0 Build 194)  -->
  <g>
    <g id="Capa_1">
      <g>
        <path class="cls-1" d="M299.9,66.3v3.8h-31.2v29.2h27.3v3.8h-27.3v33.2h-4.4v-70h35.6Z"/>
        <path class="cls-1" d="M311.2,69.1c-.7-.7-1.1-1.6-1.1-2.8s.4-2.1,1.1-2.8,1.6-1.1,2.7-1.1,1.9.4,2.7,1.1c.7.7,1.1,1.7,1.1,2.8s-.4,2.1-1.1,2.8c-.7.7-1.6,1-2.7,1s-1.9-.3-2.7-1ZM316.1,82.2v54.1h-4.4v-54.1h4.4Z"/>
        <path class="cls-1" d="M335.5,133.1c-3.8-2.7-5.9-6.4-6.4-11.4h4.5c.3,3.5,1.9,6.3,4.8,8.4,2.9,2.1,6.7,3.1,11.7,3.1s7.3-1,9.7-3.1c2.4-2.1,3.6-4.7,3.6-7.7s-.6-3.9-1.9-5.2c-1.3-1.4-2.9-2.4-4.8-3.1-1.9-.7-4.5-1.5-7.8-2.4-3.9-1.1-7.1-2.1-9.6-3.1-2.4-1-4.5-2.6-6.2-4.6-1.7-2.1-2.6-4.8-2.6-8.3s.8-4.9,2.3-7c1.5-2.2,3.6-3.9,6.3-5.1,2.7-1.3,5.7-1.9,9.2-1.9,5.6,0,10.1,1.4,13.5,4.2,3.4,2.8,5.3,6.7,5.6,11.7h-4.4c-.2-3.6-1.6-6.5-4.1-8.8-2.6-2.3-6.1-3.4-10.6-3.4s-7,1-9.5,3c-2.5,2-3.7,4.4-3.7,7.3s.7,4.6,2.1,6.1c1.4,1.6,3.2,2.8,5.2,3.6,2.1.8,4.8,1.7,8.2,2.6,3.7,1,6.7,2,9,2.9,2.3,1,4.2,2.4,5.8,4.2,1.6,1.8,2.4,4.3,2.4,7.3s-.8,5.3-2.3,7.6c-1.5,2.3-3.6,4-6.3,5.3-2.7,1.3-5.7,1.9-9.1,1.9-6,0-10.8-1.3-14.6-4Z"/>
        <path class="cls-1" d="M380.9,69.1c-.7-.7-1.1-1.6-1.1-2.8s.4-2.1,1.1-2.8,1.6-1.1,2.7-1.1,1.9.4,2.7,1.1c.7.7,1.1,1.7,1.1,2.8s-.4,2.1-1.1,2.8c-.7.7-1.6,1-2.7,1s-1.9-.3-2.7-1ZM385.7,82.2v54.1h-4.4v-54.1h4.4Z"/>
        <path class="cls-1" d="M412,133.7c-4-2.3-7.1-5.5-9.4-9.7-2.3-4.2-3.4-9.2-3.4-14.8s1.1-10.5,3.4-14.7c2.3-4.2,5.5-7.4,9.5-9.7,4-2.2,8.5-3.3,13.5-3.3s9.5,1.1,13.5,3.3c4,2.2,7.1,5.4,9.4,9.6,2.3,4.2,3.4,9.1,3.4,14.7s-1.1,10.6-3.4,14.8c-2.3,4.2-5.5,7.5-9.5,9.7-4,2.3-8.6,3.4-13.5,3.4s-9.5-1.1-13.5-3.4ZM436.3,130.5c3.4-1.8,6.1-4.4,8.1-8,2-3.6,3.1-8,3.1-13.3s-1-9.6-3.1-13.2c-2-3.6-4.7-6.3-8.1-8-3.3-1.8-7-2.6-10.8-2.6s-7.5.9-10.8,2.6c-3.3,1.8-6,4.4-8,8-2,3.6-3.1,8-3.1,13.2s1,9.7,3,13.3c2,3.6,4.7,6.3,8,8,3.3,1.8,6.9,2.6,10.8,2.6s7.5-.9,10.9-2.6Z"/>
        <path class="cls-1" d="M466.9,82.9c2.9-5.4,6.8-9.6,11.8-12.7,5-3.1,10.6-4.6,16.9-4.6s14.5,1.9,19.9,5.6c5.4,3.7,9.3,8.9,11.8,15.6h-5.1c-2-5.3-5.2-9.5-9.8-12.6-4.6-3.1-10.2-4.6-16.8-4.6s-10.1,1.3-14.5,3.8c-4.3,2.6-7.7,6.2-10.2,11.1-2.5,4.8-3.7,10.4-3.7,16.9s1.2,11.9,3.7,16.7c2.5,4.8,5.9,8.4,10.2,11,4.3,2.6,9.2,3.9,14.5,3.9s12.2-1.5,16.8-4.6c4.6-3.1,7.8-7.3,9.8-12.6h5.1c-2.5,6.7-6.4,11.9-11.8,15.6-5.4,3.7-12,5.6-19.9,5.6s-11.9-1.5-16.9-4.5c-5-3-9-7.2-11.8-12.7-2.9-5.4-4.3-11.5-4.3-18.4s1.4-13.1,4.3-18.5Z"/>
        <path class="cls-1" d="M551.3,133.7c-4-2.3-7.1-5.5-9.4-9.7-2.3-4.2-3.4-9.2-3.4-14.8s1.1-10.5,3.4-14.7c2.3-4.2,5.5-7.4,9.5-9.7,4-2.2,8.5-3.3,13.5-3.3s9.5,1.1,13.5,3.3c4,2.2,7.1,5.4,9.4,9.6,2.3,4.2,3.4,9.1,3.4,14.7s-1.1,10.6-3.4,14.8c-2.3,4.2-5.5,7.5-9.5,9.7-4,2.3-8.6,3.4-13.5,3.4s-9.5-1.1-13.5-3.4ZM575.6,130.5c3.4-1.8,6.1-4.4,8.1-8,2-3.6,3.1-8,3.1-13.3s-1-9.6-3.1-13.2c-2-3.6-4.7-6.3-8.1-8-3.3-1.8-7-2.6-10.8-2.6s-7.5.9-10.8,2.6c-3.3,1.8-6,4.4-8,8-2,3.6-3.1,8-3.1,13.2s1,9.7,3,13.3c2,3.6,4.7,6.3,8,8,3.3,1.8,6.9,2.6,10.8,2.6s7.5-.9,10.9-2.6Z"/>
        <path class="cls-1" d="M616.2,84.2c3.3-2.1,7.6-3.1,12.8-3.1v4.7h-1.5c-5.3,0-9.6,1.5-13.1,4.5-3.5,3-5.2,8-5.2,14.8v31.2h-4.4v-54.1h4.4v11.2c1.3-4,3.6-7,7-9.1Z"/>
        <path class="cls-1" d="M687.1,111h-46.2c.1,4.9,1.2,8.9,3.2,12.3,2,3.3,4.6,5.8,7.8,7.5,3.2,1.7,6.7,2.5,10.5,2.5s9.6-1.3,13.2-3.9c3.5-2.6,5.8-6.2,6.7-10.7h4.6c-1.1,5.5-3.7,10-8.1,13.4-4.3,3.4-9.8,5.1-16.4,5.1s-9.5-1.1-13.4-3.4c-3.9-2.3-7-5.5-9.3-9.7-2.2-4.2-3.3-9.2-3.3-14.8s1.1-10.6,3.3-14.7c2.2-4.2,5.3-7.4,9.2-9.6,3.9-2.2,8.4-3.3,13.5-3.3s9.6,1.1,13.3,3.3c3.8,2.2,6.6,5.2,8.6,8.9,2,3.7,3,7.7,3,11.9s0,4.2-.2,5.4ZM680.4,95.1c-1.9-3.3-4.4-5.8-7.6-7.4-3.2-1.6-6.7-2.4-10.4-2.4s-7.2.8-10.4,2.4c-3.2,1.6-5.8,4.1-7.8,7.4-2,3.3-3.1,7.4-3.2,12.2h41.9c.2-4.8-.6-8.8-2.5-12.2Z"/>
      </g>
      <g>
        <path class="cls-1" d="M209.4,97.9c-7.5,19-22.1,36.3-37.4,50.5.4,1.1.8,1.7,1.6,3,11.8-10.9,21.7-22.3,28.8-33.2,4.2-6.5,8.7-16.1,11.3-23.2l-4.3,2.9Z"/>
        <g>
          <path class="cls-1" d="M190.9,62.4c-5.7-3.8-11.5-7.5-16.9-11.9-3.8-3.1-7.6-10.2-11.9-12.2-12.8,22.1-12.6,38.3-30.3,52.8-5.4,4.4-10.3,9-15.5,13.6-4.9,4.4-7.5,10.3-12.5,15.5s-7,6.7-12.7,8.5c-3.5,1.1-7.3,1.2-9.1,4.1-3.4,5.2.3,12.8,0,18.3-.4,8.1-5.5,19.1,1.8,26.2,5.8,5.7,9.2,2.7,11.1-3.8,2.5-8.6,2.2-13.7,8.3-21.1,4.3-5.2,7.3-10.6,11.3-15.9,3.6-4.7,8-8.7,11.6-13.4,7.5-9.6,17.5-15.2,27.7-23.1,5.2-4,39.5-35.8,36.8-37.5Z"/>
          <path class="cls-2" d="M142.4,138c.9,4,4.4,9.4,8,14.9,3.6,5.5,4.7,10.3,8.2,13.3s10.6,5.7,13.3,3.8c4.4-3,2.2-8.3.7-12.6-2.3-6.6-5.1-11.7-4.1-19.3.7-5.5,19.9-28.7,30-36.8,10.2-8.2,33.8-22,29.4-37.2-3.1-10.7-15.8-29.4-24.2-36.3-9.4-7.6-24.6-12.9-36.5-12.5-2.5,0-4.1,0-5.7.4-6.5,1.7-5,13.1-1,20.3,6.4,11.8,20.8,19.7,31.5,27.2,3.2,2.2,7.8,4,6.7,8.8-.8,3.3-17.1,25.5-39.2,48.9-8.6,9.1-18.1,12.2-17,17.1Z"/>
          <path class="cls-1" d="M152.6,164.7c-18.3,14-33.3,18.9-33.3,18.9,0,0-84-46.7-84-109.5s14.1-51.6,37.5-51.6c21.6,0,36.4,7.1,45.6,32.9,10.3-28.2,28.9-39.7,49.6-39.2s31.2,9.2,35.8,11.9c-2.5-2.3-18.6-13.4-36.1-13.5-14,0-24.4,4.1-31.8,10-7.4,5.8-13.1,13.2-16.7,21.8-3.6-8.6-9.3-16.1-16.7-21.8-9.4-7.2-21-11.2-32.6-11.2h0c-13.2,0-25.4,5.1-34.1,14.4-9.9,10.5-15.2,25.8-15.2,44.4s5.2,30.5,15.4,46.3c8.1,12.4,19.3,24.9,33.4,37.3,23.8,20.9,48,34.2,48.3,34.3l1.5.8,1.5-.8c.2-.1,16.2-9.1,34.5-23.1-1.3-.8-2-1.4-2.6-2.1Z"/>
        </g>
      </g>
    </g>
  </g>
</svg>