<?xml version="1.0" encoding="UTF-8"?>
<svg xmlns="http://www.w3.org/2000/svg" version="1.1" viewBox="0 0 712.3 202.5">
  <defs>
    <style>
      .cls-1 {
        fill: #00216b;
      }

      .cls-2 {
        fill: #2741a0;
      }
    </style>
  </defs>
  <!-- Generator: Adobe Illustrator 28.7.7, SVG Export Plug-In . SVG Version: 1.2.0 Build 194)  -->
  <g>
    <g id="Capa_1">
      <g>
        <path class="cls-1" d="M293.5,50.7v3.9h-32.3v29.9h28.2v3.9h-28.2v33.9h-4.6V50.7h36.9Z"/>
        <path class="cls-1" d="M305.3,53.5c-.7-.7-1.1-1.7-1.1-2.9s.4-2.1,1.1-2.9c.7-.7,1.7-1.1,2.8-1.1s2,.4,2.8,1.1c.7.7,1.1,1.7,1.1,2.9s-.4,2.2-1.1,2.9c-.7.7-1.7,1.1-2.8,1.1s-2-.4-2.8-1.1ZM310.3,66.9v55.3h-4.6v-55.3h4.6Z"/>
        <path class="cls-1" d="M330.4,119c-3.9-2.7-6.1-6.6-6.6-11.6h4.7c.3,3.6,2,6.5,4.9,8.6,3,2.1,7,3.2,12.1,3.2s7.6-1.1,10-3.2c2.5-2.1,3.7-4.8,3.7-7.9s-.7-4-2-5.3c-1.3-1.4-3-2.5-4.9-3.2-2-.7-4.7-1.6-8.1-2.4-4.1-1.1-7.4-2.2-9.9-3.2-2.5-1.1-4.7-2.6-6.4-4.7-1.8-2.1-2.6-4.9-2.6-8.5s.8-5,2.3-7.2c1.6-2.2,3.7-4,6.5-5.2,2.8-1.3,5.9-1.9,9.5-1.9,5.8,0,10.4,1.4,14,4.3,3.6,2.9,5.5,6.9,5.8,12h-4.6c-.2-3.7-1.6-6.7-4.3-9-2.6-2.3-6.3-3.5-11-3.5s-7.2,1-9.8,3.1c-2.6,2-3.9,4.5-3.9,7.4s.7,4.7,2.2,6.3c1.5,1.6,3.3,2.8,5.4,3.7,2.1.9,5,1.7,8.5,2.7,3.9,1,7,2,9.3,3,2.3,1,4.3,2.4,6,4.3,1.6,1.9,2.4,4.4,2.4,7.5s-.8,5.4-2.3,7.7c-1.6,2.3-3.7,4.1-6.5,5.4-2.8,1.3-5.9,1.9-9.4,1.9-6.2,0-11.2-1.4-15.1-4.1Z"/>
        <path class="cls-1" d="M377.3,53.5c-.7-.7-1.1-1.7-1.1-2.9s.4-2.1,1.1-2.9c.7-.7,1.7-1.1,2.8-1.1s2,.4,2.8,1.1c.7.7,1.1,1.7,1.1,2.9s-.4,2.2-1.1,2.9c-.7.7-1.7,1.1-2.8,1.1s-2-.4-2.8-1.1ZM382.3,66.9v55.3h-4.6v-55.3h4.6Z"/>
        <path class="cls-1" d="M409.5,119.6c-4.1-2.3-7.4-5.6-9.7-9.9-2.3-4.3-3.5-9.4-3.5-15.1s1.2-10.7,3.6-15c2.4-4.3,5.7-7.6,9.8-9.9,4.2-2.3,8.8-3.4,14-3.4s9.8,1.1,14,3.4c4.1,2.3,7.4,5.6,9.7,9.8s3.5,9.3,3.5,15.1-1.2,10.8-3.6,15.1c-2.4,4.3-5.7,7.6-9.8,9.9-4.2,2.3-8.9,3.5-14,3.5s-9.8-1.2-14-3.5ZM434.7,116.3c3.5-1.8,6.3-4.5,8.4-8.2,2.1-3.7,3.2-8.2,3.2-13.5s-1.1-9.8-3.2-13.4c-2.1-3.7-4.9-6.4-8.4-8.2-3.5-1.8-7.2-2.7-11.2-2.7s-7.7.9-11.2,2.7c-3.4,1.8-6.2,4.5-8.3,8.2-2.1,3.7-3.2,8.2-3.2,13.4s1,9.9,3.1,13.5c2.1,3.7,4.8,6.4,8.3,8.2,3.4,1.8,7.2,2.7,11.2,2.7s7.8-.9,11.3-2.7Z"/>
        <path class="cls-1" d="M466.4,67.7c3-5.5,7-9.9,12.2-13,5.2-3.1,11-4.7,17.5-4.7s15,1.9,20.6,5.7c5.6,3.8,9.6,9.1,12.2,16h-5.3c-2-5.4-5.4-9.7-10.1-12.9-4.7-3.2-10.5-4.7-17.4-4.7s-10.5,1.3-15,3.9c-4.5,2.6-8,6.4-10.6,11.3-2.6,4.9-3.9,10.7-3.9,17.3s1.3,12.2,3.9,17.1c2.6,4.9,6.1,8.6,10.6,11.3,4.5,2.6,9.5,4,15,4s12.7-1.6,17.4-4.7c4.7-3.2,8.1-7.5,10.1-12.9h5.3c-2.6,6.9-6.7,12.2-12.2,16-5.6,3.8-12.4,5.7-20.6,5.7s-12.3-1.5-17.5-4.6c-5.2-3.1-9.3-7.4-12.2-12.9-3-5.5-4.4-11.8-4.4-18.8s1.5-13.4,4.4-18.9Z"/>
        <path class="cls-1" d="M553.7,119.6c-4.1-2.3-7.4-5.6-9.7-9.9-2.3-4.3-3.5-9.4-3.5-15.1s1.2-10.7,3.6-15c2.4-4.3,5.7-7.6,9.8-9.9,4.2-2.3,8.8-3.4,14-3.4s9.8,1.1,14,3.4c4.1,2.3,7.4,5.6,9.7,9.8s3.5,9.3,3.5,15.1-1.2,10.8-3.6,15.1c-2.4,4.3-5.7,7.6-9.8,9.9-4.2,2.3-8.9,3.5-14,3.5s-9.8-1.2-14-3.5ZM579,116.3c3.5-1.8,6.3-4.5,8.4-8.2,2.1-3.7,3.2-8.2,3.2-13.5s-1.1-9.8-3.2-13.4c-2.1-3.7-4.9-6.4-8.4-8.2-3.5-1.8-7.2-2.7-11.2-2.7s-7.7.9-11.2,2.7c-3.4,1.8-6.2,4.5-8.3,8.2-2.1,3.7-3.2,8.2-3.2,13.4s1,9.9,3.1,13.5c2.1,3.7,4.8,6.4,8.3,8.2,3.4,1.8,7.2,2.7,11.2,2.7s7.8-.9,11.3-2.7Z"/>
        <path class="cls-1" d="M620.9,69c3.5-2.1,7.9-3.2,13.2-3.2v4.8h-1.5c-5.4,0-10,1.5-13.6,4.6-3.6,3.1-5.4,8.1-5.4,15.1v31.9h-4.6v-55.3h4.6v11.4c1.4-4.1,3.8-7.2,7.2-9.3Z"/>
        <path class="cls-1" d="M694.4,96.4h-47.8c.1,5,1.2,9.1,3.3,12.5,2,3.4,4.7,5.9,8.1,7.6,3.3,1.7,7,2.5,10.9,2.5s10-1.3,13.7-4c3.7-2.7,6-6.3,6.9-11h4.8c-1.1,5.6-3.9,10.2-8.4,13.7-4.5,3.5-10.2,5.2-17,5.2s-9.8-1.2-13.9-3.5c-4.1-2.3-7.3-5.6-9.6-9.9-2.3-4.3-3.5-9.4-3.5-15.1s1.1-10.8,3.4-15.1c2.3-4.3,5.5-7.6,9.5-9.8,4.1-2.3,8.7-3.4,14-3.4s9.9,1.1,13.8,3.4c3.9,2.3,6.9,5.3,8.9,9.1,2,3.8,3.1,7.8,3.1,12.2s0,4.3-.2,5.5ZM687.4,80.2c-1.9-3.4-4.6-5.9-7.9-7.6-3.3-1.7-6.9-2.5-10.8-2.5s-7.5.8-10.8,2.5c-3.3,1.7-6,4.2-8.1,7.6-2.1,3.4-3.2,7.5-3.3,12.4h43.4c.2-4.9-.7-9-2.6-12.4Z"/>
      </g>
      <g>
        <path class="cls-1" d="M256.3,151v6.4h6.2v1.4h-6.2v7.7h-1.6v-16.9h8.2v1.4h-6.7Z"/>
        <path class="cls-1" d="M272.1,166.8c-.9,0-1.7-.1-2.4-.4-.7-.3-1.3-.7-1.8-1.3-.5-.5-.9-1.2-1.2-2-.3-.8-.4-1.6-.4-2.5s.1-1.9.4-2.7c.3-.8.7-1.5,1.2-2s1.2-1,1.9-1.3c.7-.3,1.6-.4,2.5-.4s1.7.1,2.4.4c.7.3,1.3.7,1.8,1.2.5.5.9,1.2,1.1,2,.3.8.4,1.7.4,2.7s-.1,1.8-.4,2.6c-.3.8-.7,1.4-1.2,2-.5.6-1.1,1-1.8,1.3-.7.3-1.5.5-2.5.5ZM272.2,155.5c-.7,0-1.3.1-1.8.3-.5.2-1,.6-1.4,1s-.7,1-.9,1.6c-.2.6-.3,1.3-.3,2.2s.1,1.4.3,2c.2.6.5,1.1.9,1.6.4.4.8.8,1.4,1s1.1.3,1.8.3,1.3-.1,1.8-.3c.5-.2,1-.5,1.3-1,.4-.4.6-1,.8-1.6.2-.6.3-1.3.3-2.1,0-1.6-.4-2.9-1.1-3.7-.7-.9-1.8-1.3-3.1-1.3Z"/>
        <path class="cls-1" d="M288.3,156c-.4-.3-.8-.4-1.4-.4s-.8,0-1.1.2-.6.4-.8.6-.4.6-.6.9c-.2.3-.3.7-.4,1.1,0,.4-.2.7-.2,1.1s0,.7,0,1.1v5.9h-1.5v-12.1h1.5v2.6h0c.1-.4.3-.8.5-1.2s.5-.6.7-.9.6-.4.9-.5c.3-.1.7-.2,1.1-.2s.5,0,.7,0c.2,0,.4,0,.5.1v1.6Z"/>
        <path class="cls-1" d="M297.6,166.4c-.5.3-1.1.4-1.7.4-1.9,0-2.9-1.1-2.9-3.4v-7.6h-2.1v-1.3h2.1v-3l1.5-.5v3.5h3.1v1.3h-3.1v7.4c0,.8.1,1.4.4,1.8s.7.5,1.4.5.9-.1,1.4-.4v1.3Z"/>
        <path class="cls-1" d="M308.2,166.5v-2.1h0c-.4.8-.9,1.4-1.6,1.8-.7.4-1.4.6-2.3.6s-1.1,0-1.6-.2c-.5-.2-.9-.4-1.2-.7s-.6-.7-.8-1.1c-.2-.4-.3-.9-.3-1.4,0-1.1.3-2,1-2.6s1.7-1.1,3.1-1.3l3.7-.5c0-2.3-.9-3.5-2.7-3.5s-2.7.5-3.9,1.5v-1.6c.3-.2.5-.3.9-.5.3-.1.7-.3,1-.4.4-.1.7-.2,1.1-.2.4,0,.7,0,1.1,0,1.3,0,2.4.4,3,1.1.7.8,1,1.9,1,3.4v7.8h-1.5ZM305.1,160.6c-.5,0-1,.2-1.4.3-.4.1-.7.3-1,.5-.3.2-.4.4-.6.7-.1.3-.2.7-.2,1.1s0,.6.2.9.3.5.5.7c.2.2.5.4.8.5.3.1.7.2,1.1.2s1-.1,1.5-.3.8-.5,1.2-.8c.3-.4.6-.8.8-1.3s.3-1,.3-1.6v-1.2l-3.1.4Z"/>
        <path class="cls-1" d="M314.6,166.5v-17.9h1.5v17.9h-1.5Z"/>
        <path class="cls-1" d="M322,160.7c0,.7.1,1.4.3,2s.5,1.1.8,1.5c.4.4.8.7,1.3.9s1.1.3,1.7.3c1.4,0,2.6-.5,3.9-1.4v1.5c-1.2.8-2.6,1.2-4.2,1.2s-1.5-.1-2.2-.4-1.2-.7-1.7-1.2-.8-1.2-1.1-2-.4-1.7-.4-2.7.1-1.7.4-2.5c.3-.8.7-1.4,1.1-2,.5-.6,1.1-1,1.7-1.3.7-.3,1.4-.5,2.2-.5s1.5.1,2.1.4c.6.3,1.1.7,1.5,1.2s.7,1.1.9,1.8.3,1.5.3,2.4v.8h-8.7ZM329.1,159.4c0-1.3-.3-2.2-.9-2.9s-1.4-1-2.4-1-1,0-1.4.3c-.4.2-.8.4-1.1.8-.3.3-.6.8-.8,1.2-.2.5-.4,1-.5,1.7h7.1Z"/>
        <path class="cls-1" d="M342.9,166c-.9.5-2,.8-3.3.8-.9,0-1.6-.1-2.3-.4-.7-.3-1.3-.7-1.8-1.3-.5-.5-.9-1.2-1.1-1.9-.3-.7-.4-1.5-.4-2.4s.1-1.8.4-2.6c.3-.8.7-1.5,1.2-2.1.5-.6,1.2-1.1,1.9-1.4.8-.3,1.6-.5,2.6-.5s1.9.2,2.7.6v1.6c-.9-.6-1.8-.9-2.9-.9s-1.4.1-1.9.4c-.6.3-1,.6-1.4,1.1s-.7,1-.9,1.6c-.2.6-.3,1.3-.3,2s0,1.3.3,1.9.4,1.1.8,1.6c.3.5.8.8,1.3,1.1s1.2.4,1.9.4c1.1,0,2.2-.3,3.1-1v1.5Z"/>
        <path class="cls-1" d="M347.7,160.7c0,.7.1,1.4.3,2s.5,1.1.8,1.5c.4.4.8.7,1.3.9s1.1.3,1.7.3c1.4,0,2.6-.5,3.9-1.4v1.5c-1.2.8-2.6,1.2-4.2,1.2s-1.5-.1-2.2-.4-1.2-.7-1.7-1.2-.8-1.2-1.1-2-.4-1.7-.4-2.7.1-1.7.4-2.5c.3-.8.7-1.4,1.1-2,.5-.6,1.1-1,1.7-1.3.7-.3,1.4-.5,2.2-.5s1.5.1,2.1.4c.6.3,1.1.7,1.5,1.2s.7,1.1.9,1.8.3,1.5.3,2.4v.8h-8.7ZM354.9,159.4c0-1.3-.3-2.2-.9-2.9s-1.4-1-2.4-1-1,0-1.4.3c-.4.2-.8.4-1.1.8-.3.3-.6.8-.8,1.2-.2.5-.4,1-.5,1.7h7.1Z"/>
        <path class="cls-1" d="M373.7,166.4c-.5.3-1.1.4-1.7.4-1.9,0-2.9-1.1-2.9-3.4v-7.6h-2.1v-1.3h2.1v-3l1.5-.5v3.5h3.1v1.3h-3.1v7.4c0,.8.1,1.4.4,1.8s.7.5,1.4.5.9-.1,1.4-.4v1.3Z"/>
        <path class="cls-1" d="M385.3,166.5v-2.1h0c-.8,1.6-2.1,2.3-3.8,2.3-2.9,0-4.3-1.8-4.3-5.3v-7.1h1.5v6.8c0,1.4.3,2.5.8,3.2.5.7,1.3,1,2.4,1s1,0,1.4-.3c.4-.2.8-.5,1.1-.8.3-.4.6-.8.7-1.3.2-.5.3-1.1.3-1.7v-6.9h1.5v12.1h-1.5Z"/>
        <path class="cls-1" d="M407.8,166c-.9.5-2,.8-3.3.8-.9,0-1.6-.1-2.3-.4-.7-.3-1.3-.7-1.8-1.3-.5-.5-.9-1.2-1.1-1.9-.3-.7-.4-1.5-.4-2.4s.1-1.8.4-2.6c.3-.8.7-1.5,1.2-2.1.5-.6,1.2-1.1,1.9-1.4.8-.3,1.6-.5,2.6-.5s1.9.2,2.7.6v1.6c-.9-.6-1.8-.9-2.9-.9s-1.4.1-1.9.4c-.6.3-1,.6-1.4,1.1s-.7,1-.9,1.6-.3,1.3-.3,2,0,1.3.3,1.9.4,1.1.8,1.6c.3.5.8.8,1.3,1.1.5.3,1.2.4,1.9.4,1.1,0,2.2-.3,3.1-1v1.5Z"/>
        <path class="cls-1" d="M412.7,160.7c0,.7.1,1.4.3,2s.5,1.1.8,1.5c.4.4.8.7,1.3.9s1.1.3,1.7.3c1.4,0,2.6-.5,3.9-1.4v1.5c-1.2.8-2.6,1.2-4.2,1.2s-1.5-.1-2.2-.4-1.2-.7-1.7-1.2-.8-1.2-1.1-2-.4-1.7-.4-2.7.1-1.7.4-2.5c.3-.8.7-1.4,1.1-2,.5-.6,1.1-1,1.7-1.3.7-.3,1.4-.5,2.2-.5s1.5.1,2.1.4c.6.3,1.1.7,1.5,1.2s.7,1.1.9,1.8.3,1.5.3,2.4v.8h-8.7ZM419.8,159.4c0-1.3-.3-2.2-.9-2.9s-1.4-1-2.4-1-1,0-1.4.3c-.4.2-.8.4-1.1.8-.3.3-.6.8-.8,1.2-.2.5-.4,1-.5,1.7h7.1Z"/>
        <path class="cls-1" d="M433.7,166.5v-7c0-2.7-1-4.1-3-4.1s-1,.1-1.5.3c-.4.2-.8.5-1.2.9-.3.4-.6.8-.8,1.3-.2.5-.3,1.1-.3,1.6v6.9h-1.5v-12.1h1.5v2.1h0c.9-1.6,2.2-2.4,4-2.4s2.3.4,3,1.3c.7.9,1,2.1,1,3.7v7.4h-1.5Z"/>
        <path class="cls-1" d="M445.3,166.4c-.5.3-1.1.4-1.7.4-1.9,0-2.9-1.1-2.9-3.4v-7.6h-2.1v-1.3h2.1v-3l1.5-.5v3.5h3.1v1.3h-3.1v7.4c0,.8.1,1.4.4,1.8s.7.5,1.4.5.9-.1,1.4-.4v1.3Z"/>
        <path class="cls-1" d="M455,156c-.4-.3-.8-.4-1.4-.4s-.8,0-1.1.2-.6.4-.8.6-.4.6-.6.9c-.2.3-.3.7-.4,1.1,0,.4-.2.7-.2,1.1s0,.7,0,1.1v5.9h-1.5v-12.1h1.5v2.6h0c.1-.4.3-.8.5-1.2s.5-.6.7-.9.6-.4.9-.5c.3-.1.7-.2,1.1-.2s.5,0,.7,0c.2,0,.4,0,.5.1v1.6Z"/>
        <path class="cls-1" d="M463,166.8c-.9,0-1.7-.1-2.4-.4-.7-.3-1.3-.7-1.8-1.3-.5-.5-.9-1.2-1.2-2s-.4-1.6-.4-2.5.1-1.9.4-2.7c.3-.8.7-1.5,1.2-2s1.2-1,1.9-1.3c.7-.3,1.6-.4,2.5-.4s1.7.1,2.4.4,1.3.7,1.8,1.2c.5.5.9,1.2,1.1,2,.3.8.4,1.7.4,2.7s-.1,1.8-.4,2.6c-.3.8-.7,1.4-1.2,2-.5.6-1.1,1-1.8,1.3-.7.3-1.5.5-2.5.5ZM463.2,155.5c-.7,0-1.3.1-1.8.3-.5.2-1,.6-1.4,1s-.7,1-.9,1.6c-.2.6-.3,1.3-.3,2.2s.1,1.4.3,2c.2.6.5,1.1.9,1.6s.8.8,1.4,1,1.1.3,1.8.3,1.3-.1,1.8-.3,1-.5,1.3-1,.6-1,.8-1.6c.2-.6.3-1.3.3-2.1,0-1.6-.4-2.9-1.1-3.7-.7-.9-1.8-1.3-3.1-1.3Z"/>
        <path class="cls-1" d="M472.9,169.5h-1.1l1.6-5.7h1.5l-2,5.7Z"/>
        <path class="cls-1" d="M492.7,166.4c-.5.3-1.1.4-1.7.4-1.9,0-2.9-1.1-2.9-3.4v-7.6h-2.1v-1.3h2.1v-3l1.5-.5v3.5h3.1v1.3h-3.1v7.4c0,.8.1,1.4.4,1.8s.7.5,1.4.5.9-.1,1.4-.4v1.3Z"/>
        <path class="cls-1" d="M502.4,156c-.4-.3-.8-.4-1.4-.4s-.8,0-1.1.2-.6.4-.8.6-.4.6-.6.9c-.2.3-.3.7-.4,1.1,0,.4-.2.7-.2,1.1s0,.7,0,1.1v5.9h-1.5v-12.1h1.5v2.6h0c.1-.4.3-.8.5-1.2s.5-.6.7-.9.6-.4.9-.5c.3-.1.7-.2,1.1-.2s.5,0,.7,0c.2,0,.4,0,.5.1v1.6Z"/>
        <path class="cls-1" d="M512.8,166.5v-2.1h0c-.4.8-.9,1.4-1.6,1.8-.7.4-1.4.6-2.3.6s-1.1,0-1.6-.2c-.5-.2-.9-.4-1.2-.7s-.6-.7-.8-1.1c-.2-.4-.3-.9-.3-1.4,0-1.1.3-2,1-2.6s1.7-1.1,3.1-1.3l3.7-.5c0-2.3-.9-3.5-2.7-3.5s-2.7.5-3.9,1.5v-1.6c.3-.2.5-.3.9-.5.3-.1.7-.3,1-.4.4-.1.7-.2,1.1-.2.4,0,.7,0,1.1,0,1.3,0,2.4.4,3,1.1.7.8,1,1.9,1,3.4v7.8h-1.5ZM509.7,160.6c-.5,0-1,.2-1.4.3-.4.1-.7.3-1,.5-.3.2-.4.4-.6.7-.1.3-.2.7-.2,1.1s0,.6.2.9.3.5.5.7c.2.2.5.4.8.5.3.1.7.2,1.1.2s1-.1,1.5-.3.8-.5,1.2-.8c.3-.4.6-.8.8-1.3s.3-1,.3-1.6v-1.2l-3.1.4Z"/>
        <path class="cls-1" d="M527.3,166.5v-7c0-2.7-1-4.1-3-4.1s-1,.1-1.5.3c-.4.2-.8.5-1.2.9-.3.4-.6.8-.8,1.3-.2.5-.3,1.1-.3,1.6v6.9h-1.5v-12.1h1.5v2.1h0c.9-1.6,2.2-2.4,4-2.4s2.3.4,3,1.3c.7.9,1,2.1,1,3.7v7.4h-1.5Z"/>
        <path class="cls-1" d="M533,164.3c.2.2.5.3.7.5s.5.3.8.4c.3.1.6.2.9.2.3,0,.6,0,.8,0,1.8,0,2.7-.7,2.7-2s0-.6-.2-.8-.3-.4-.5-.6c-.2-.2-.5-.4-.8-.5-.3-.2-.7-.3-1.1-.5-.6-.2-1-.5-1.4-.7-.4-.2-.7-.5-1-.8-.3-.3-.5-.6-.6-.9-.1-.3-.2-.7-.2-1.1s.1-1,.3-1.4c.2-.4.5-.8.9-1.1.4-.3.8-.5,1.4-.7.5-.2,1.1-.2,1.6-.2,1,0,2,.2,2.7.6v1.6c-.9-.6-1.9-.9-2.9-.9s-.7,0-1,.1c-.3,0-.6.2-.8.4-.2.2-.4.4-.5.6-.1.2-.2.5-.2.8s0,.6.1.8.2.4.4.6c.2.2.5.4.8.5.3.2.7.3,1.2.5.6.2,1.1.5,1.5.7.4.2.8.5,1,.8.3.3.5.6.6.9.1.3.2.7.2,1.2s-.1,1-.3,1.4c-.2.4-.5.8-.9,1.1-.4.3-.9.5-1.4.7-.5.1-1.1.2-1.7.2-1.2,0-2.2-.3-3.1-.8v-1.7Z"/>
        <path class="cls-1" d="M550.4,150.1c-.3-.2-.8-.3-1.3-.3-1.4,0-2.1.9-2.1,2.8v1.9h3v1.3h-3v10.7h-1.5v-10.7h-2.1v-1.3h2.1v-2c0-.6,0-1.2.2-1.6s.4-.9.7-1.3c.3-.3.7-.6,1.1-.8.5-.2,1-.3,1.6-.3s1,0,1.3.2v1.4Z"/>
        <path class="cls-1" d="M558,166.8c-.9,0-1.7-.1-2.4-.4-.7-.3-1.3-.7-1.8-1.3-.5-.5-.9-1.2-1.2-2s-.4-1.6-.4-2.5.1-1.9.4-2.7c.3-.8.7-1.5,1.2-2s1.2-1,1.9-1.3c.7-.3,1.6-.4,2.5-.4s1.7.1,2.4.4,1.3.7,1.8,1.2c.5.5.9,1.2,1.1,2,.3.8.4,1.7.4,2.7s-.1,1.8-.4,2.6c-.3.8-.7,1.4-1.2,2-.5.6-1.1,1-1.8,1.3-.7.3-1.5.5-2.5.5ZM558.1,155.5c-.7,0-1.3.1-1.8.3-.5.2-1,.6-1.4,1s-.7,1-.9,1.6c-.2.6-.3,1.3-.3,2.2s.1,1.4.3,2c.2.6.5,1.1.9,1.6s.8.8,1.4,1,1.1.3,1.8.3,1.3-.1,1.8-.3,1-.5,1.3-1,.6-1,.8-1.6c.2-.6.3-1.3.3-2.1,0-1.6-.4-2.9-1.1-3.7-.7-.9-1.8-1.3-3.1-1.3Z"/>
        <path class="cls-1" d="M574.2,156c-.4-.3-.8-.4-1.4-.4s-.8,0-1.1.2c-.3.2-.6.4-.8.6-.2.3-.4.6-.6.9-.2.3-.3.7-.4,1.1,0,.4-.2.7-.2,1.1s0,.7,0,1.1v5.9h-1.5v-12.1h1.5v2.6h0c.1-.4.3-.8.5-1.2.2-.3.5-.6.7-.9s.6-.4.9-.5.7-.2,1.1-.2.5,0,.7,0c.2,0,.4,0,.5.1v1.6Z"/>
        <path class="cls-1" d="M592.7,166.5v-7.1c0-.7,0-1.3-.2-1.8-.1-.5-.3-.9-.5-1.2-.2-.3-.5-.5-.9-.7-.4-.1-.8-.2-1.3-.2s-.9.1-1.2.3c-.4.2-.7.5-1,.9-.3.4-.5.8-.7,1.3-.2.5-.3,1-.3,1.6v7h-1.5v-7.2c0-2.5-1-3.8-2.9-3.8s-.9,0-1.2.3c-.4.2-.7.5-1,.8s-.5.8-.7,1.3c-.2.5-.2,1.1-.2,1.7v6.9h-1.5v-12.1h1.5v2h0c.8-1.5,2.1-2.2,3.7-2.2s.8,0,1.2.2c.4.1.7.3,1,.5.3.2.6.5.8.8.2.3.4.7.5,1.1.4-.9,1-1.5,1.7-2,.7-.4,1.4-.7,2.3-.7,2.6,0,4,1.6,4,4.9v7.4h-1.5Z"/>
        <path class="cls-1" d="M606,166.5v-2.1h0c-.4.8-.9,1.4-1.6,1.8-.7.4-1.4.6-2.3.6s-1.1,0-1.6-.2c-.5-.2-.9-.4-1.2-.7-.3-.3-.6-.7-.8-1.1-.2-.4-.3-.9-.3-1.4,0-1.1.3-2,1-2.6s1.7-1.1,3.1-1.3l3.7-.5c0-2.3-.9-3.5-2.7-3.5s-2.7.5-3.9,1.5v-1.6c.3-.2.5-.3.9-.5.3-.1.7-.3,1-.4s.7-.2,1.1-.2c.4,0,.7,0,1.1,0,1.3,0,2.4.4,3,1.1.7.8,1,1.9,1,3.4v7.8h-1.5ZM602.9,160.6c-.5,0-1,.2-1.4.3-.4.1-.7.3-1,.5-.3.2-.4.4-.6.7s-.2.7-.2,1.1,0,.6.2.9.3.5.5.7c.2.2.5.4.8.5.3.1.7.2,1.1.2s1-.1,1.5-.3.8-.5,1.2-.8c.3-.4.6-.8.8-1.3.2-.5.3-1,.3-1.6v-1.2l-3.1.4Z"/>
        <path class="cls-1" d="M625.4,166.4c-.5.3-1.1.4-1.7.4-1.9,0-2.9-1.1-2.9-3.4v-7.6h-2.1v-1.3h2.1v-3l1.5-.5v3.5h3.1v1.3h-3.1v7.4c0,.8.1,1.4.4,1.8s.7.5,1.4.5.9-.1,1.4-.4v1.3Z"/>
        <path class="cls-1" d="M637,166.5v-2.1h0c-.8,1.6-2.1,2.3-3.8,2.3-2.9,0-4.3-1.8-4.3-5.3v-7.1h1.5v6.8c0,1.4.3,2.5.8,3.2.5.7,1.3,1,2.4,1s1,0,1.4-.3c.4-.2.8-.5,1.1-.8s.6-.8.7-1.3c.2-.5.3-1.1.3-1.7v-6.9h1.5v12.1h-1.5Z"/>
        <path class="cls-1" d="M655.8,166.5h-1.4l-4.6-12.1h1.7l3.3,9.2c.2.6.3,1,.4,1.5h0c0-.6.2-1,.4-1.4l3.5-9.2h1.6l-4.8,12.1Z"/>
        <path class="cls-1" d="M664.7,151.4c-.3,0-.5-.1-.8-.3-.2-.2-.3-.5-.3-.8s.1-.6.3-.8c.2-.2.5-.3.8-.3s.3,0,.4,0c.1,0,.2.1.3.2,0,0,.2.2.2.3,0,.1,0,.3,0,.4s0,.3,0,.4c0,.1-.1.2-.2.3-.1,0-.2.2-.3.2-.1,0-.3,0-.4,0ZM664,166.5v-12.1h1.5v12.1h-1.5Z"/>
        <path class="cls-1" d="M679.1,166.5v-2.1h0c-.4.8-1,1.4-1.7,1.8-.7.4-1.6.6-2.5.6s-1.4-.1-2.1-.4-1.1-.7-1.6-1.2c-.4-.5-.8-1.2-1-1.9s-.4-1.6-.4-2.5.1-1.9.4-2.7c.3-.8.6-1.5,1.1-2.1.5-.6,1.1-1,1.7-1.3.7-.3,1.4-.5,2.3-.5,1.7,0,3,.7,3.7,2.1h0v-7.6h1.5v17.9h-1.5ZM679.1,159.2c0-.5,0-1-.3-1.5-.2-.5-.4-.9-.8-1.2-.3-.3-.7-.6-1.2-.8s-.9-.3-1.5-.3-1.1.1-1.7.4c-.5.2-.9.6-1.3,1-.4.4-.6,1-.8,1.6-.2.6-.3,1.4-.3,2.2s0,1.4.3,2.1c.2.6.4,1.1.8,1.5.3.4.7.7,1.2,1,.5.2,1,.3,1.5.3s1.2-.1,1.7-.3c.5-.2.9-.5,1.2-.9.3-.4.6-.8.8-1.4s.3-1.1.3-1.7v-2Z"/>
        <path class="cls-1" d="M692.7,166.5v-2.1h0c-.4.8-.9,1.4-1.6,1.8-.7.4-1.4.6-2.3.6s-1.1,0-1.6-.2c-.5-.2-.9-.4-1.2-.7-.3-.3-.6-.7-.8-1.1-.2-.4-.3-.9-.3-1.4,0-1.1.3-2,1-2.6s1.7-1.1,3.1-1.3l3.7-.5c0-2.3-.9-3.5-2.7-3.5s-2.7.5-3.9,1.5v-1.6c.3-.2.5-.3.9-.5.3-.1.7-.3,1-.4s.7-.2,1.1-.2c.4,0,.7,0,1.1,0,1.3,0,2.4.4,3,1.1.7.8,1,1.9,1,3.4v7.8h-1.5ZM689.6,160.6c-.5,0-1,.2-1.4.3-.4.1-.7.3-1,.5-.3.2-.4.4-.6.7s-.2.7-.2,1.1,0,.6.2.9.3.5.5.7c.2.2.5.4.8.5.3.1.7.2,1.1.2s1-.1,1.5-.3.8-.5,1.2-.8c.3-.4.6-.8.8-1.3.2-.5.3-1,.3-1.6v-1.2l-3.1.4Z"/>
      </g>
      <g>
        <path class="cls-1" d="M198.7,101.4c-7.3,18.3-21.5,35-36.4,48.6.4,1,.7,1.7,1.6,2.9,11.5-10.5,21.1-21.4,28-31.9,4.1-6.2,8.5-15.5,11-22.3l-4.2,2.8Z"/>
        <g>
          <path class="cls-1" d="M180.6,67.2c-5.6-3.7-11.3-7.3-16.4-11.5s-7.4-9.8-11.6-11.7c-12.5,21.2-12.3,36.9-29.5,50.8s-10.1,8.7-15.1,13.1c-4.8,4.3-7.3,10-12.2,14.9-3.8,3.9-6.8,6.4-12.4,8.2-3.4,1.1-7.1,1.2-8.9,3.9-3.3,5.1.3,12.3,0,17.6-.4,7.8-5.4,18.4,1.8,25.2,5.7,5.5,9,2.6,10.8-3.6,2.5-8.2,2.1-13.2,8.1-20.4,4.2-5,7.1-10.2,11.1-15.3,3.5-4.5,7.8-8.4,11.3-12.9,7.3-9.3,17-14.6,27-22.3,5-3.9,38.5-34.4,35.9-36.2Z"/>
          <path class="cls-2" d="M133.4,140.1c.9,3.8,4.3,9.1,7.8,14.3,3.5,5.3,4.6,9.9,8,12.8s10.3,5.5,13,3.6c4.3-2.9,2.1-8,.7-12.1-2.3-6.3-5-11.3-4-18.6.7-5.2,19.4-27.6,29.2-35.4,9.9-7.9,32.9-21.2,28.7-35.8-3-10.3-15.4-28.3-23.6-34.9-9.1-7.3-24-12.4-35.6-12.1-2.4,0-4,0-5.6.4-6.3,1.6-4.9,12.6-1,19.6,6.3,11.4,20.2,19,30.7,26.2s7.6,3.9,6.5,8.4-16.7,24.6-38.2,47.1c-8.4,8.8-17.6,11.7-16.6,16.5Z"/>
          <path class="cls-1" d="M143.3,165.7c-17.8,13.4-32.5,18.2-32.5,18.2,0,0-81.9-45-81.9-105.4s13.7-49.7,36.5-49.7c21.1,0,35.5,6.8,44.5,31.6,10.1-27.2,28.2-38.2,48.4-37.8,17.1.4,30.4,8.8,34.9,11.4-2.4-2.2-18.1-12.9-35.2-13-13.7,0-23.8,4-31,9.6-7.2,5.6-12.8,12.7-16.3,21-3.5-8.3-9-15.5-16.3-21-9.1-7-20.4-10.8-31.8-10.8h0c-12.9,0-24.7,4.9-33.3,13.8-9.7,10.1-14.8,24.9-14.8,42.7s5.1,29.4,15.1,44.5c7.9,11.9,18.8,24,32.5,35.9,23.2,20.1,46.8,32.9,47.1,33.1l1.5.8,1.5-.8c.2-.1,15.8-8.7,33.7-22.2-1.2-.7-1.9-1.3-2.6-2Z"/>
        </g>
      </g>
    </g>
  </g>
</svg>