<?xml version="1.0" encoding="UTF-8"?>
<svg xmlns="http://www.w3.org/2000/svg" version="1.1" viewBox="0 0 712.3 475.4">
  <defs>
    <style>
      .cls-1 {
        fill: #00216b;
      }

      .cls-2 {
        fill: #2741a0;
      }
    </style>
  </defs>
  <!-- Generator: Adobe Illustrator 28.7.7, SVG Export Plug-In . SVG Version: 1.2.0 Build 194)  -->
  <g>
    <g id="Capa_1">
      <g>
        <path class="cls-1" d="M80.7,337.6v5.9H31.8v45.2h42.7v5.9H31.8v51.3h-6.9v-108.2h55.8Z"/>
        <path class="cls-1" d="M98.4,341.8c-1.1-1.1-1.7-2.5-1.7-4.4s.6-3.2,1.7-4.3,2.5-1.7,4.2-1.7,3,.6,4.2,1.7c1.1,1.1,1.7,2.6,1.7,4.3s-.6,3.3-1.7,4.4c-1.1,1.1-2.5,1.6-4.2,1.6s-3-.5-4.2-1.6ZM105.9,362.1v83.7h-6.9v-83.7h6.9Z"/>
        <path class="cls-1" d="M136.4,440.9c-5.9-4.1-9.2-10-9.9-17.6h7.1c.5,5.4,3,9.8,7.5,12.9,4.5,3.2,10.6,4.8,18.3,4.8s11.4-1.6,15.2-4.9c3.7-3.2,5.6-7.2,5.6-11.9s-1-6-3-8.1c-2-2.1-4.5-3.7-7.5-4.9-3-1.1-7-2.4-12.2-3.7-6.2-1.6-11.2-3.3-15-4.9-3.8-1.6-7-4-9.7-7.2-2.7-3.2-4-7.4-4-12.8s1.2-7.5,3.5-10.9c2.4-3.3,5.6-6,9.9-7.9,4.2-2,9-2.9,14.3-2.9,8.7,0,15.8,2.2,21.2,6.6,5.4,4.4,8.3,10.4,8.7,18.1h-6.9c-.3-5.5-2.5-10.1-6.5-13.6-4-3.5-9.6-5.2-16.6-5.2s-10.9,1.5-14.8,4.6c-3.9,3.1-5.9,6.8-5.9,11.3s1.1,7.1,3.3,9.5c2.2,2.4,4.9,4.3,8.2,5.5,3.2,1.3,7.5,2.6,12.9,4.1,5.9,1.5,10.6,3.1,14.1,4.5,3.5,1.5,6.6,3.6,9,6.5,2.5,2.8,3.7,6.6,3.7,11.3s-1.2,8.2-3.5,11.7c-2.4,3.5-5.7,6.2-9.9,8.2-4.2,2-8.9,2.9-14.2,2.9-9.4,0-17-2.1-22.9-6.2Z"/>
        <path class="cls-1" d="M207.3,341.8c-1.1-1.1-1.7-2.5-1.7-4.4s.6-3.2,1.7-4.3,2.5-1.7,4.2-1.7,3,.6,4.2,1.7c1.1,1.1,1.7,2.6,1.7,4.3s-.6,3.3-1.7,4.4c-1.1,1.1-2.5,1.6-4.2,1.6s-3-.5-4.2-1.6ZM214.9,362.1v83.7h-6.9v-83.7h6.9Z"/>
        <path class="cls-1" d="M256,441.8c-6.3-3.5-11.2-8.5-14.7-15-3.5-6.5-5.3-14.2-5.3-22.9s1.8-16.2,5.4-22.7c3.6-6.5,8.6-11.5,14.9-15,6.3-3.4,13.4-5.2,21.2-5.2s14.8,1.7,21.1,5.2c6.3,3.4,11.2,8.4,14.7,14.9,3.5,6.5,5.3,14.1,5.3,22.8s-1.8,16.4-5.4,22.9c-3.6,6.5-8.6,11.5-14.9,15-6.3,3.5-13.4,5.2-21.2,5.2s-14.8-1.7-21.1-5.2ZM294.2,436.8c5.3-2.7,9.5-6.9,12.7-12.4,3.2-5.5,4.8-12.4,4.8-20.5s-1.6-14.8-4.8-20.3c-3.2-5.5-7.4-9.7-12.6-12.4-5.2-2.7-10.9-4.1-17-4.1s-11.7,1.4-16.9,4.1c-5.2,2.7-9.4,6.9-12.6,12.4-3.2,5.5-4.8,12.3-4.8,20.3s1.6,15,4.7,20.5c3.1,5.5,7.3,9.7,12.5,12.4,5.2,2.7,10.8,4.1,16.9,4.1s11.7-1.4,17-4.1Z"/>
        <path class="cls-1" d="M342.1,363.3c4.5-8.4,10.6-14.9,18.5-19.7,7.9-4.7,16.7-7.1,26.4-7.1s22.7,2.9,31.1,8.6c8.4,5.8,14.6,13.8,18.5,24.2h-8c-3.1-8.2-8.2-14.7-15.3-19.5-7.1-4.8-15.9-7.2-26.3-7.2s-15.9,2-22.7,5.9c-6.8,4-12.1,9.7-16,17.1-3.9,7.5-5.9,16.2-5.9,26.1s2,18.5,5.9,25.8c3.9,7.3,9.2,13,16,17,6.8,4,14.3,6,22.7,6s19.1-2.4,26.3-7.2c7.1-4.8,12.3-11.3,15.3-19.5h8c-3.9,10.4-10.1,18.4-18.5,24.2-8.4,5.8-18.8,8.6-31.1,8.6s-18.6-2.3-26.4-7c-7.9-4.7-14-11.2-18.5-19.6-4.5-8.4-6.7-17.9-6.7-28.4s2.2-20.2,6.7-28.6Z"/>
        <path class="cls-1" d="M474.1,441.8c-6.3-3.5-11.2-8.5-14.7-15-3.5-6.5-5.3-14.2-5.3-22.9s1.8-16.2,5.4-22.7c3.6-6.5,8.6-11.5,14.9-15,6.3-3.4,13.4-5.2,21.2-5.2s14.8,1.7,21.1,5.2c6.3,3.4,11.2,8.4,14.7,14.9,3.5,6.5,5.3,14.1,5.3,22.8s-1.8,16.4-5.4,22.9c-3.6,6.5-8.6,11.5-14.9,15-6.3,3.5-13.4,5.2-21.2,5.2s-14.9-1.7-21.1-5.2ZM512.3,436.8c5.3-2.7,9.5-6.9,12.7-12.4,3.2-5.5,4.8-12.4,4.8-20.5s-1.6-14.8-4.8-20.3c-3.2-5.5-7.4-9.7-12.6-12.4-5.2-2.7-10.9-4.1-17-4.1s-11.7,1.4-16.9,4.1c-5.2,2.7-9.4,6.9-12.6,12.4-3.2,5.5-4.8,12.3-4.8,20.3s1.6,15,4.7,20.5c3.1,5.5,7.3,9.7,12.5,12.4,5.2,2.7,10.8,4.1,16.9,4.1s11.7-1.4,17-4.1Z"/>
        <path class="cls-1" d="M575.7,365.3c5.2-3.2,11.9-4.9,20-4.9v7.2h-2.3c-8.2,0-15.1,2.3-20.5,7-5.4,4.7-8.2,12.3-8.2,22.9v48.2h-6.9v-83.7h6.9v17.3c2.1-6.2,5.7-10.9,10.9-14.1Z"/>
        <path class="cls-1" d="M686.8,406.6h-72.3c.2,7.5,1.8,13.8,4.9,19,3.1,5.1,7.1,9,12.2,11.6,5,2.6,10.5,3.9,16.5,3.9s15.1-2,20.7-6.1c5.5-4.1,9-9.6,10.5-16.6h7.2c-1.6,8.5-5.9,15.4-12.6,20.7-6.8,5.3-15.4,7.9-25.7,7.9s-14.8-1.7-21-5.2c-6.2-3.5-11-8.5-14.5-15-3.5-6.5-5.2-14.2-5.2-22.9s1.7-16.3,5.2-22.8c3.4-6.5,8.2-11.4,14.4-14.9,6.2-3.4,13.2-5.2,21.1-5.2s15,1.7,20.9,5.2c5.9,3.4,10.4,8,13.5,13.7,3.1,5.7,4.6,11.8,4.6,18.4s-.1,6.5-.3,8.3ZM676.3,382.1c-2.9-5.1-6.9-9-11.9-11.5-5-2.5-10.5-3.8-16.3-3.8s-11.3,1.3-16.3,3.8c-5,2.5-9,6.3-12.2,11.5-3.1,5.1-4.8,11.4-5,18.8h65.7c.3-7.4-1-13.7-3.9-18.8Z"/>
      </g>
      <g>
        <g>
          <path class="cls-1" d="M457.4,105.3c-13.2-9.3-27-17.8-38.3-29.6-2.4-2.5-3.7-6-7.1-7.6-6.2,7.5-9,16.7-13.2,25.2-3.8,11.6-8.4,23-13.1,34.3-1.8,2.7-3.6,5.4-5.5,8-5.6,6.2-12.1,11.4-18.7,16.5-6.6,5-13.4,10-18.5,16.7h0c-.9.6-1.7,1.3-2.6,1.9-5-.2-6.9,3.3-8.7,7-1.4,3-1.8,6.5-4.4,8.9-3.6,3.2-6.6,6.7-8.2,11.2-.9,2.3-2.6,3.3-5,3.5-1.4,0-2.4.6-3.5,1.4-2.1,3.8-5.4,5.8-9.7,5.2-3.2-.4-5.2,1.4-7.5,3h0c-1.1-1.5-2.6-.8-4-.8-2.8,2.3-3.4,5.7-3.8,9-.7,5.4-2.3,11.1.5,16.1,1.5,2.8,1.4,4.7.6,7.4-4.2,13.9-6,27.7,2.8,40.7,2.4,2.2,4.7,3.2,8,4.5,2.2.5,5.6,1.2,7-2.3,2.8-3.2,2.6-7.2,2.5-10.9-.2-9.7,2.8-18.1,9.3-25.2,4.1-4.5,6.5-10.5,12-13.9,1.7-1.1,2.4-3.2,1.9-5.4,3.9-3.5,7.4-7.1,8.6-12.7.8-3.9,4.9-6,8-8.6,1.9-3,5.1-4.5,7.7-6.7.2-2.8,2.7-3.6,4.5-4.7,3-1.9,4.3-4.4,3.5-7.8h0c8.6-8.1,18.2-14.8,28.5-20.4,3.1-1.7,6.2-3.4,8.7-5.9,12.2-12.5,26.5-22.6,40.4-33.1,8.1-6.1,15.5-12.8,20.2-22-.2-1.9-1.9-2.1-3.1-3Z"/>
          <path class="cls-2" d="M401.9,191.1c-7.5,3-14.5,7-21,11.9.1,1.7-1.3,2.7-2,4-3-1.7-4.9.2-6.7,2.1-1.4,7.2,2.7,11.9,7.9,15.8,3,2.2,4.8,4.7,4.6,8.3-.3,5.6,1.9,10.2,5.2,14.3,5.2,6.5,10.9,12.7,18.1,17.1.6,0,1,.2,1.1.8,6.1,2.7,12.4,3.4,19,3.1,2.2-.1,4.9.2,5.5-3,1.5-2.1.2-3.9-.7-5.6-1.8-3.4-4.1-6.5-6-9.8-5.8-10.4-7.2-21.4-3.5-32.8,1.6-.5,3.3-.8,1.8-3.1l.4-3.9h0c.6-.4,1.1-.8,1.7-1.2,1.7-2.1,3.4-4.3,5-6.4,2.8-3.2,5.1-7,8.5-9.4,5.6-4,8.8-10.5,15.2-13.5,1.4-.7,1.6-2.4,1.3-4,2-1.8,3.8-3.8,5.9-5.4,17.1-12.6,33.3-26.3,48.2-41.6,7.3-7.5,8.2-15,3-24.1-2.2-3.8-4.5-7.4-6.8-11.1-4.6-5-7.4-11.1-10.8-16.9-4.9-8.2-10.1-16.2-16.3-23.5-6.8-3.5-16.2-11.9-39-17.8-13.4-3.4-18-3.6-25.2-3-3.2.3-8.8.1-10.3,4.5-2,5.7-.9,23.2,2.9,26.4,1.2,1.6,3,2.7,3.2,5,3.4,1.6,4.7,5.1,7.1,7.6,11.3,11.8,25.1,20.3,38.3,29.6,1.2.8,2.9,1.1,3.1,3,.6.1,1.4,0,1.9.4,3.6,2.3,8.6,4.1,8.8,8.8.2,4.4-4.5,6.2-8,8.2-12.9,7.3-23.4,17.1-31,30-4.2,1.4-5.8,5.3-7.6,8.7-3.1,5.9-5.9,11.9-11.9,15.6-2.8,1.7-3.7,5-5.6,7.5-1.3,1.7-2.7,3.4-5.1,3.7"/>
        </g>
        <path class="cls-1" d="M486.7,160.2c-11.8,29.5-34.7,56.4-58.7,78.4.6,1.7,1.2,2.7,2.5,4.6,18.5-16.9,34-34.6,45.2-51.5,6.6-10,13.7-25,17.8-36l-6.8,4.5Z"/>
        <path class="cls-1" d="M397.5,263.8c-28.7,21.7-52.4,29.3-52.4,29.3,0,0-136.4-71.9-136.4-169.5s26-82.5,62.8-82.5c33.9,0,57.8,12.8,72.2,52.8,16.2-43.8,45.5-61,78-60.3,27.5.6,58.8,20.1,58.8,19.3-.6-.5-29.9-22.1-59.3-22.4-22.1-.2-38.4,6.4-50,15.5-11.6,9.1-20.6,20.4-26.3,33.8-5.7-13.4-14.6-24.9-26.3-33.8-14.7-11.2-33-17.4-51.3-17.4h0c-20.8,0-39.9,7.9-53.6,22.3-15.6,16.3-23.8,40.1-23.8,68.9s8.2,47.4,24.3,71.8c12.7,19.2,30.3,38.7,52.5,57.8,37.5,32.4,75.5,53.1,75.9,53.3l2.4,1.3,2.4-1.3c.3-.2,25.5-14.1,54.3-35.8-2-1.2-3.1-2.1-4.1-3.2Z"/>
      </g>
    </g>
  </g>
</svg>